<mxfile host="app.diagrams.net" modified="2022-08-25T12:17:03.921Z" agent="5.0 (Windows NT 10.0; Win64; x64) AppleWebKit/537.36 (KHTML, like Gecko) Chrome/104.0.0.0 Safari/537.36" etag="0bpyeB81Bs5d7DGL4CCG" version="20.2.7" type="github">
  <diagram name="Page-1" id="edf60f1a-56cd-e834-aa8a-f176f3a09ee4">
    <mxGraphModel dx="1221" dy="672" grid="1" gridSize="10" guides="1" tooltips="1" connect="1" arrows="1" fold="1" page="1" pageScale="1" pageWidth="1100" pageHeight="850" background="none" math="0" shadow="0">
      <root>
        <mxCell id="0" />
        <mxCell id="1" parent="0" />
        <mxCell id="60e70716793133e9-33" value="なし" style="edgeStyle=orthogonalEdgeStyle;rounded=0;html=1;labelBackgroundColor=none;startSize=5;endArrow=classicThin;endFill=1;endSize=5;jettySize=auto;orthogonalLoop=1;strokeWidth=1;fontFamily=Verdana;fontSize=8;labelPosition=right;verticalLabelPosition=middle;align=left;verticalAlign=middle;" parent="1" source="60e70716793133e9-5" target="60e70716793133e9-7" edge="1">
          <mxGeometry x="-0.7778" y="10" relative="1" as="geometry">
            <mxPoint as="offset" />
          </mxGeometry>
        </mxCell>
        <mxCell id="60e70716793133e9-37" value="あり" style="edgeStyle=orthogonalEdgeStyle;rounded=0;html=1;labelBackgroundColor=none;startSize=5;endArrow=classicThin;endFill=1;endSize=5;jettySize=auto;orthogonalLoop=1;strokeWidth=1;fontFamily=Verdana;fontSize=8" parent="1" source="60e70716793133e9-5" target="0lrkoqPi9YDPyT_f_Kjm-12" edge="1">
          <mxGeometry x="-0.5" y="10" relative="1" as="geometry">
            <mxPoint as="offset" />
            <mxPoint x="250" y="320" as="targetPoint" />
          </mxGeometry>
        </mxCell>
        <mxCell id="60e70716793133e9-5" value="トーケン存在&lt;br&gt;確認" style="rhombus;whiteSpace=wrap;html=1;rounded=0;shadow=1;labelBackgroundColor=none;strokeWidth=1;fontFamily=Verdana;fontSize=8;align=center;" parent="1" vertex="1">
          <mxGeometry x="200" y="220" width="100" height="60" as="geometry" />
        </mxCell>
        <mxCell id="60e70716793133e9-35" value="あり" style="edgeStyle=orthogonalEdgeStyle;rounded=0;html=1;labelBackgroundColor=none;startSize=5;endArrow=classicThin;endFill=1;endSize=5;jettySize=auto;orthogonalLoop=1;strokeWidth=1;fontFamily=Verdana;fontSize=8;labelPosition=left;verticalLabelPosition=middle;align=right;verticalAlign=middle;" parent="1" source="60e70716793133e9-7" target="60e70716793133e9-10" edge="1">
          <mxGeometry x="-1" y="-10" relative="1" as="geometry">
            <mxPoint x="440" y="300" as="targetPoint" />
            <Array as="points" />
            <mxPoint as="offset" />
          </mxGeometry>
        </mxCell>
        <mxCell id="0lrkoqPi9YDPyT_f_Kjm-20" value="なし" style="edgeStyle=orthogonalEdgeStyle;rounded=0;orthogonalLoop=1;jettySize=auto;html=1;" edge="1" parent="1" source="60e70716793133e9-7" target="0lrkoqPi9YDPyT_f_Kjm-19">
          <mxGeometry relative="1" as="geometry" />
        </mxCell>
        <mxCell id="60e70716793133e9-7" value="ユーザ存在&lt;br&gt;確認" style="rhombus;whiteSpace=wrap;html=1;rounded=0;shadow=1;labelBackgroundColor=none;strokeWidth=1;fontFamily=Verdana;fontSize=8;align=center;" parent="1" vertex="1">
          <mxGeometry x="390" y="220" width="100" height="60" as="geometry" />
        </mxCell>
        <mxCell id="60e70716793133e9-39" value="BAIDUで登録" style="edgeStyle=orthogonalEdgeStyle;rounded=0;html=1;labelBackgroundColor=none;startSize=5;endArrow=classicThin;endFill=1;endSize=5;jettySize=auto;orthogonalLoop=1;strokeWidth=1;fontFamily=Verdana;fontSize=8;labelPosition=left;verticalLabelPosition=middle;align=right;verticalAlign=middle;" parent="1" edge="1">
          <mxGeometry relative="1" as="geometry">
            <mxPoint x="442" y="461" as="sourcePoint" />
            <mxPoint x="442" y="511" as="targetPoint" />
          </mxGeometry>
        </mxCell>
        <mxCell id="60e70716793133e9-10" value="ログイン画面" style="whiteSpace=wrap;html=1;rounded=0;shadow=1;labelBackgroundColor=none;strokeWidth=1;fontFamily=Verdana;fontSize=8;align=center;" parent="1" vertex="1">
          <mxGeometry x="380" y="421" width="120" height="40" as="geometry" />
        </mxCell>
        <mxCell id="0lrkoqPi9YDPyT_f_Kjm-6" value="スキン" style="edgeStyle=orthogonalEdgeStyle;rounded=0;orthogonalLoop=1;jettySize=auto;html=1;labelPosition=left;verticalLabelPosition=middle;align=right;verticalAlign=middle;entryX=0.5;entryY=0;entryDx=0;entryDy=0;" edge="1" parent="1" source="60e70716793133e9-12" target="0lrkoqPi9YDPyT_f_Kjm-14">
          <mxGeometry relative="1" as="geometry">
            <mxPoint x="470" y="631" as="targetPoint" />
          </mxGeometry>
        </mxCell>
        <mxCell id="60e70716793133e9-12" value="QRcode画面" style="whiteSpace=wrap;html=1;rounded=0;shadow=1;labelBackgroundColor=none;strokeWidth=1;fontFamily=Verdana;fontSize=8;align=center;spacing=6;" parent="1" vertex="1">
          <mxGeometry x="380" y="511" width="120" height="40" as="geometry" />
        </mxCell>
        <mxCell id="0lrkoqPi9YDPyT_f_Kjm-1" value="https//www.violin-home.cn" style="strokeWidth=2;html=1;shape=mxgraph.flowchart.start_1;whiteSpace=wrap;" vertex="1" parent="1">
          <mxGeometry x="170" y="110" width="160" height="60" as="geometry" />
        </mxCell>
        <mxCell id="0lrkoqPi9YDPyT_f_Kjm-2" value="" style="endArrow=classic;html=1;rounded=0;exitX=0.5;exitY=1;exitDx=0;exitDy=0;exitPerimeter=0;" edge="1" parent="1" source="0lrkoqPi9YDPyT_f_Kjm-1" target="60e70716793133e9-5">
          <mxGeometry width="50" height="50" relative="1" as="geometry">
            <mxPoint x="500" y="330" as="sourcePoint" />
            <mxPoint x="550" y="280" as="targetPoint" />
          </mxGeometry>
        </mxCell>
        <mxCell id="0lrkoqPi9YDPyT_f_Kjm-13" value="" style="edgeStyle=orthogonalEdgeStyle;rounded=0;orthogonalLoop=1;jettySize=auto;html=1;exitX=0;exitY=0.5;exitDx=0;exitDy=0;" edge="1" parent="1" source="0lrkoqPi9YDPyT_f_Kjm-14" target="0lrkoqPi9YDPyT_f_Kjm-12">
          <mxGeometry relative="1" as="geometry">
            <mxPoint x="380" y="651" as="sourcePoint" />
          </mxGeometry>
        </mxCell>
        <mxCell id="0lrkoqPi9YDPyT_f_Kjm-28" value="" style="edgeStyle=orthogonalEdgeStyle;rounded=0;orthogonalLoop=1;jettySize=auto;html=1;" edge="1" parent="1" source="0lrkoqPi9YDPyT_f_Kjm-12" target="0lrkoqPi9YDPyT_f_Kjm-27">
          <mxGeometry relative="1" as="geometry" />
        </mxCell>
        <mxCell id="0lrkoqPi9YDPyT_f_Kjm-12" value="ホームページ遷移" style="whiteSpace=wrap;html=1;rounded=0;shadow=1;labelBackgroundColor=none;strokeWidth=1;fontFamily=Verdana;fontSize=8;align=center;spacing=6;" vertex="1" parent="1">
          <mxGeometry x="190" y="631" width="120" height="40" as="geometry" />
        </mxCell>
        <mxCell id="0lrkoqPi9YDPyT_f_Kjm-30" value="" style="edgeStyle=orthogonalEdgeStyle;rounded=0;orthogonalLoop=1;jettySize=auto;html=1;" edge="1" parent="1" source="0lrkoqPi9YDPyT_f_Kjm-14" target="0lrkoqPi9YDPyT_f_Kjm-29">
          <mxGeometry relative="1" as="geometry" />
        </mxCell>
        <mxCell id="0lrkoqPi9YDPyT_f_Kjm-14" value="BAIDUで認証&lt;br&gt;トーケン発行" style="rounded=1;whiteSpace=wrap;html=1;shadow=1;labelBackgroundColor=none;strokeWidth=1;fontFamily=Verdana;fontSize=8;align=center;" vertex="1" parent="1">
          <mxGeometry x="390" y="631" width="100" height="40" as="geometry" />
        </mxCell>
        <mxCell id="0lrkoqPi9YDPyT_f_Kjm-22" value="レンタルコード入力" style="edgeStyle=orthogonalEdgeStyle;rounded=0;orthogonalLoop=1;jettySize=auto;html=1;labelPosition=right;verticalLabelPosition=middle;align=left;verticalAlign=middle;" edge="1" parent="1" source="0lrkoqPi9YDPyT_f_Kjm-16">
          <mxGeometry relative="1" as="geometry">
            <mxPoint x="633" y="410" as="targetPoint" />
          </mxGeometry>
        </mxCell>
        <mxCell id="0lrkoqPi9YDPyT_f_Kjm-16" value="レンタルコード&lt;br&gt;入力画面" style="whiteSpace=wrap;html=1;rounded=0;shadow=1;labelBackgroundColor=none;strokeWidth=1;fontFamily=Verdana;fontSize=8;align=center;spacing=6;" vertex="1" parent="1">
          <mxGeometry x="573" y="320" width="120" height="40" as="geometry" />
        </mxCell>
        <mxCell id="0lrkoqPi9YDPyT_f_Kjm-21" value="持ち" style="edgeStyle=orthogonalEdgeStyle;rounded=0;orthogonalLoop=1;jettySize=auto;html=1;" edge="1" parent="1" source="0lrkoqPi9YDPyT_f_Kjm-19" target="0lrkoqPi9YDPyT_f_Kjm-16">
          <mxGeometry relative="1" as="geometry" />
        </mxCell>
        <mxCell id="0lrkoqPi9YDPyT_f_Kjm-39" value="遷移" style="edgeStyle=orthogonalEdgeStyle;rounded=0;orthogonalLoop=1;jettySize=auto;html=1;" edge="1" parent="1" source="0lrkoqPi9YDPyT_f_Kjm-19" target="0lrkoqPi9YDPyT_f_Kjm-38">
          <mxGeometry relative="1" as="geometry" />
        </mxCell>
        <mxCell id="0lrkoqPi9YDPyT_f_Kjm-19" value="レンタル&lt;br&gt;コード持ち方" style="rhombus;whiteSpace=wrap;html=1;rounded=0;shadow=1;labelBackgroundColor=none;strokeWidth=1;fontFamily=Verdana;fontSize=8;align=center;" vertex="1" parent="1">
          <mxGeometry x="583" y="220" width="100" height="60" as="geometry" />
        </mxCell>
        <mxCell id="0lrkoqPi9YDPyT_f_Kjm-25" value="OK" style="edgeStyle=orthogonalEdgeStyle;rounded=0;orthogonalLoop=1;jettySize=auto;html=1;" edge="1" parent="1" source="0lrkoqPi9YDPyT_f_Kjm-23" target="60e70716793133e9-10">
          <mxGeometry relative="1" as="geometry" />
        </mxCell>
        <mxCell id="0lrkoqPi9YDPyT_f_Kjm-23" value="レンタルコード&lt;br&gt;存在確認" style="rhombus;whiteSpace=wrap;html=1;rounded=0;shadow=1;labelBackgroundColor=none;strokeWidth=1;fontFamily=Verdana;fontSize=8;align=center;" vertex="1" parent="1">
          <mxGeometry x="583" y="411" width="100" height="60" as="geometry" />
        </mxCell>
        <mxCell id="0lrkoqPi9YDPyT_f_Kjm-26" value="NG" style="edgeStyle=orthogonalEdgeStyle;rounded=0;orthogonalLoop=1;jettySize=auto;html=1;entryX=1;entryY=0.5;entryDx=0;entryDy=0;exitX=1;exitY=0.5;exitDx=0;exitDy=0;labelPosition=center;verticalLabelPosition=bottom;align=center;verticalAlign=top;" edge="1" parent="1" source="0lrkoqPi9YDPyT_f_Kjm-23" target="0lrkoqPi9YDPyT_f_Kjm-16">
          <mxGeometry relative="1" as="geometry">
            <mxPoint x="593" y="451" as="sourcePoint" />
            <mxPoint x="510" y="451" as="targetPoint" />
            <Array as="points">
              <mxPoint x="740" y="441" />
              <mxPoint x="740" y="340" />
            </Array>
          </mxGeometry>
        </mxCell>
        <mxCell id="0lrkoqPi9YDPyT_f_Kjm-27" value="End" style="strokeWidth=1;html=1;shape=mxgraph.flowchart.terminator;whiteSpace=wrap;rounded=0;shadow=1;labelBackgroundColor=none;fontFamily=Verdana;fontSize=8;align=center;" vertex="1" parent="1">
          <mxGeometry x="220" y="794" width="60" height="30" as="geometry" />
        </mxCell>
        <mxCell id="0lrkoqPi9YDPyT_f_Kjm-32" value="" style="edgeStyle=orthogonalEdgeStyle;rounded=0;orthogonalLoop=1;jettySize=auto;html=1;entryX=0.5;entryY=0;entryDx=0;entryDy=0;" edge="1" parent="1" source="0lrkoqPi9YDPyT_f_Kjm-29" target="0lrkoqPi9YDPyT_f_Kjm-33">
          <mxGeometry relative="1" as="geometry" />
        </mxCell>
        <mxCell id="0lrkoqPi9YDPyT_f_Kjm-29" value="BAIDUアカウント&lt;br&gt;情報取得" style="rounded=1;whiteSpace=wrap;html=1;shadow=1;labelBackgroundColor=none;strokeWidth=1;fontFamily=Verdana;fontSize=8;align=center;" vertex="1" parent="1">
          <mxGeometry x="570" y="631" width="100" height="40" as="geometry" />
        </mxCell>
        <mxCell id="0lrkoqPi9YDPyT_f_Kjm-35" value="" style="edgeStyle=orthogonalEdgeStyle;rounded=0;orthogonalLoop=1;jettySize=auto;html=1;entryX=0.5;entryY=0;entryDx=0;entryDy=0;entryPerimeter=0;" edge="1" parent="1" source="0lrkoqPi9YDPyT_f_Kjm-31" target="0lrkoqPi9YDPyT_f_Kjm-27">
          <mxGeometry relative="1" as="geometry" />
        </mxCell>
        <mxCell id="0lrkoqPi9YDPyT_f_Kjm-31" value="ユーザ登録" style="rounded=1;whiteSpace=wrap;html=1;shadow=1;labelBackgroundColor=none;strokeWidth=1;fontFamily=Verdana;fontSize=8;align=center;" vertex="1" parent="1">
          <mxGeometry x="390" y="740" width="100" height="40" as="geometry" />
        </mxCell>
        <mxCell id="0lrkoqPi9YDPyT_f_Kjm-34" value="なし" style="edgeStyle=orthogonalEdgeStyle;rounded=0;orthogonalLoop=1;jettySize=auto;html=1;" edge="1" parent="1" source="0lrkoqPi9YDPyT_f_Kjm-33" target="0lrkoqPi9YDPyT_f_Kjm-31">
          <mxGeometry relative="1" as="geometry" />
        </mxCell>
        <mxCell id="0lrkoqPi9YDPyT_f_Kjm-33" value="ユーザ存在&lt;br&gt;確認" style="rhombus;whiteSpace=wrap;html=1;rounded=0;shadow=1;labelBackgroundColor=none;strokeWidth=1;fontFamily=Verdana;fontSize=8;align=center;" vertex="1" parent="1">
          <mxGeometry x="570" y="730" width="100" height="60" as="geometry" />
        </mxCell>
        <mxCell id="0lrkoqPi9YDPyT_f_Kjm-36" value="あり" style="edgeStyle=orthogonalEdgeStyle;rounded=0;orthogonalLoop=1;jettySize=auto;html=1;entryX=1;entryY=0.5;entryDx=0;entryDy=0;entryPerimeter=0;exitX=0.5;exitY=1;exitDx=0;exitDy=0;labelPosition=right;verticalLabelPosition=middle;align=left;verticalAlign=middle;" edge="1" parent="1" source="0lrkoqPi9YDPyT_f_Kjm-33" target="0lrkoqPi9YDPyT_f_Kjm-27">
          <mxGeometry relative="1" as="geometry">
            <mxPoint x="630" y="777" as="sourcePoint" />
            <mxPoint x="630" y="836" as="targetPoint" />
          </mxGeometry>
        </mxCell>
        <mxCell id="0lrkoqPi9YDPyT_f_Kjm-38" value="管理者連絡&lt;br&gt;画面" style="whiteSpace=wrap;html=1;fontSize=8;fontFamily=Verdana;rounded=0;shadow=1;labelBackgroundColor=none;strokeWidth=1;" vertex="1" parent="1">
          <mxGeometry x="753" y="220" width="120" height="60" as="geometry" />
        </mxCell>
      </root>
    </mxGraphModel>
  </diagram>
</mxfile>
